<svg width="231" height="143" viewBox="0 0 231 143" xmlns="http://www.w3.org/2000/svg" xmlns:xlink="http://www.w3.org/1999/xlink"><title>microilustracion</title><defs><path id="a" d="M0 .75h140.592v141.956H0z"/><path id="c" d="M28.017 52.726L8.66 33.156.17 42l27.977 28.284 59.86-61.39-8.62-8.71z"/><path id="e" d="M12.374 12.19V.405H.702V12.19h11.672z"/></defs><g fill="none" fill-rule="evenodd"><g transform="translate(0 .018)"><mask id="b" fill="#fff"><use xlink:href="#a"/></mask><path d="M140.592 71.727c0 39.2-31.473 70.98-70.296 70.98C31.473 142.706 0 110.926 0 71.726S31.473.75 70.296.75c38.823 0 70.296 31.777 70.296 70.977" fill="#48AE64" mask="url(#b)"/></g><g fill="#D8B375" opacity=".67"><path d="M204.073 77.9c0 1.554-1.17 2.814-2.612 2.814h-2.227c-1.442 0-2.612-1.26-2.612-2.813v-.485c0-1.555 1.17-2.814 2.613-2.814h2.228c1.443 0 2.613 1.26 2.613 2.815v.486zM203.284 60.965H91.897l-5.358 5.642h116.744c1.464 0 2.65-1.09 2.65-2.67v-.207c0-1.58-1.186-2.765-2.65-2.765M189.035 74.6H78.948l-5.358 5.643h115.445c1.464 0 2.464-1.184 2.464-2.762v-.21c0-1.58-1-2.67-2.465-2.67M160.535 87.767h-94.09L60.64 93.88h99.895c1.464 0 2.557-1.28 2.557-2.858v-.21c0-1.577-1.093-3.045-2.557-3.045"/></g><path d="M58.84 89.238l-19.356-19.57-8.49 8.845 27.976 28.284 59.862-61.39-8.62-8.712" fill="#277A3E" opacity=".55"/><path fill="#FFF" d="M53.852 84.2L34.494 64.63l-8.49 8.845 27.977 28.283 59.862-61.388-8.62-8.714"/><g transform="translate(25.835 31.475)"><mask id="d" fill="#fff"><use xlink:href="#c"/></mask><path fill="#FFF" mask="url(#d)" d="M-2.46 72.94h93.097V-2.475H-2.46"/></g><g><path fill="#FADE8E" d="M178.098 96.193l-6.49 2.104 6.49 2.108 2.087 6.553 2.086-6.553 6.492-2.108-6.49-2.104-2.087-6.553"/><g transform="translate(218.078 65.233)"><mask id="f" fill="#fff"><use xlink:href="#e"/></mask><path fill="#FADE8E" mask="url(#f)" d="M5.12 4.864L.7 6.294 5.12 7.73l1.42 4.46 1.42-4.46 4.414-1.435-4.415-1.43L6.54.404"/></g><path fill="#FADE8E" d="M151.263 47.937l-3.503 1.136 3.503 1.138 1.127 3.538 1.126-3.537 3.503-1.137-3.504-1.136-1.126-3.537"/></g></g></svg>